#!OML:ASF F:\VICON\USERDATA\INSTALL\rory3\rory3.ASF
:FULLY-SPECIFIED
:DEGREES
203
root 0.731487 17.6701 6.44134 -0.143381 -4.08357 -7.2717
lowerback 9.90076 2.54183 7.53456
upperback 0.391352 4.30466 1.54264
thorax -4.71051 1.97403 -3.18687
lowerneck -17.4372 -2.9967 -1.82717
upperneck 18.3574 -3.73042 0.437469
head 8.64924 -1.83636 -0.0160155
rclavicle 1.72446e-014 -2.98177e-016
rhumerus -19.935 -6.50121 -82.8842
rradius 34.2435
rwrist -2.25283
rhand -18.3982 24.5869
rfingers 7.12502
rthumb 7.88605 -5.24597
lclavicle 1.72446e-014 -2.98177e-016
lhumerus -40.1456 5.09345 81.7036
lradius 24.2877
lwrist 3.54058
lhand -25.8884 26.5293
lfingers 7.12502
lthumb 0.653572 56.508
rfemur 10.4783 6.59497 34.6042
rtibia 26.0275
rfoot -20.6972 -8.59643
rtoes -8.14227
lfemur -28.1765 -4.14725 -9.87024
ltibia 15.7658
lfoot -7.42967 3.75015
ltoes -1.13265
204
root 0.752455 17.6312 6.65318 -0.305367 -4.14763 -7.39012
lowerback 9.88203 2.59739 7.63879
upperback 0.487739 4.38575 1.61628
thorax -4.58791 2.0197 -3.17267
lowerneck -17.5579 -3.02655 -1.89584
upperneck 18.5043 -3.76063 0.47683
head 8.72358 -1.85014 0.00150891
rclavicle -3.38245e-015 -7.45443e-015
rhumerus -19.9764 -6.7095 -82.7491
rradius 34.2305
rwrist -2.25613
rhand -18.2636 24.5946
rfingers 7.12502
rthumb 8.01595 -5.23342
lclavicle -3.38245e-015 -7.45443e-015
lhumerus -40.0869 5.56566 81.4883
lradius 23.4431
lwrist 2.93804
lhand -25.5291 32.4868
lfingers 7.12502
lthumb 1.00058 62.4642
rfemur 10.9108 6.73263 34.7654
rtibia 26.9983
rfoot -20.4589 -8.41378
rtoes -8.54909
lfemur -28.122 -3.91374 -10.0819
ltibia 16.978
lfoot -7.51503 2.89678
ltoes -1.32331
205
root 0.774987 17.6052 6.87376 -0.37853 -4.31403 -7.33722
lowerback 9.70415 2.7025 7.613
upperback 0.508597 4.50272 1.5918
thorax -4.45358 2.08408 -3.18556
lowerneck -17.5534 -3.02949 -2.00175
upperneck 18.6955 -3.77526 0.644431
head 8.79409 -1.8458 0.0720928
rclavicle -1.175e-014 -2.48481e-015
rhumerus -20.17 -7.07557 -82.6747
rradius 34.1446
rwrist -2.22611
rhand -18.1978 24.776
rfingers 7.12502
rthumb 8.07946 -5.04955
lclavicle -1.175e-014 -2.48481e-015
lhumerus -40.1132 6.07087 81.1576
lradius 22.8438
lwrist 2.41238
lhand -27.337 38.5424
lfingers 7.12502
lthumb -0.745564 68.5209
rfemur 11.1887 6.77001 34.5993
rtibia 27.9814
rfoot -20.1203 -7.57925
rtoes -6.89399
lfemur -28.0078 -4.03664 -10.3223
ltibia 18.1252
lfoot -7.44202 2.01941
ltoes -2.90345
206
root 0.802645 17.6019 7.10788 -0.522469 -4.48985 -7.04185
lowerback 9.4829 2.80106 7.37861
upperback 0.49414 4.58447 1.50788
thorax -4.3469 2.13299 -3.13908
lowerneck -17.2218 -2.99241 -1.99213
upperneck 18.6019 -3.74645 0.705942
head 8.70335 -1.82697 0.100766
rclavicle 9.06023e-015 1.89342e-014
rhumerus -20.4963 -7.57262 -82.5777
rradius 33.9136
rwrist -1.91454
rhand -18.1968 25.0439
rfingers 7.12502
rthumb 8.08042 -4.78166
lclavicle 9.06023e-015 1.89342e-014
lhumerus -40.5229 6.50654 80.8561
lradius 22.2555
lwrist 1.56404
lhand -25.1516 36.2034
lfingers 7.12502
lthumb 1.36515 66.1787
rfemur 11.5174 6.45165 33.9798
rtibia 28.9427
rfoot -19.6064 -6.66131
rtoes -8.02224
lfemur -27.6071 -4.18635 -10.912
ltibia 19.1505
lfoot -7.60023 0.829565
ltoes -6.44907
207
root 0.829872 17.6015 7.34447 -0.635421 -4.68397 -6.92296
lowerback 9.21084 2.89847 7.3614
upperback 0.520937 4.68302 1.46176
thorax -4.1534 2.1905 -3.16919
lowerneck -17.0676 -3.00243 -2.00165
upperneck 18.568 -3.76764 0.737494
head 8.66533 -1.83517 0.11291
rclavicle -1.85242e-014 -1.59028e-015
rhumerus -20.73 -8.06415 -82.4866
rradius 33.6126
rwrist -1.55369
rhand -18.1886 24.929
rfingers 7.12502
rthumb 8.08834 -4.89621
lclavicle -1.85242e-014 -1.59028e-015
lhumerus -40.8188 7.07341 80.4635
lradius 21.3691
lwrist 0.480102
lhand -25.9558 31.0144
lfingers 7.12502
lthumb 0.588407 60.9933
rfemur 11.8661 6.2117 33.5984
rtibia 29.814
rfoot -18.8476 -6.2522
rtoes -10.3818
lfemur -27.2281 -3.79386 -11.4502
ltibia 20.004
lfoot -7.23401 -1.22608
ltoes -8.65721
208
root 0.85945 17.6115 7.57913 -0.701089 -4.78471 -6.75708
lowerback 8.97778 2.96771 7.29321
upperback 0.552084 4.74259 1.4127
thorax -3.98504 2.22872 -3.17176
lowerneck -17.1627 -3.07938 -1.93242
upperneck 18.6659 -3.8655 0.618343
head 8.71305 -1.8883 0.0468304
rclavicle 3.72597e-014 -8.59744e-015
rhumerus -20.8359 -8.60617 -82.3847
rradius 33.2305
rwrist -1.05108
rhand -18.2177 24.6679
rfingers 7.12502
rthumb 8.06023 -5.15835
lclavicle 3.72597e-014 -8.59744e-015
lhumerus -41.0223 7.30879 80.2669
lradius 20.9016
lwrist 0.257028
lhand -26.5319 27.176
lfingers 7.12502
lthumb 0.0319839 57.1557
rfemur 12.1302 6.13332 33.2218
rtibia 30.6764
rfoot -17.8313 -5.60041
rtoes -9.91209
lfemur -27.0371 -3.53425 -11.9415
ltibia 20.8374
lfoot -5.61526 -3.50769
ltoes -7.27627
209
root 0.891075 17.6357 7.8192 -0.833957 -4.69475 -6.23318
lowerback 8.89514 2.97043 6.88123
upperback 0.449786 4.69808 1.27837
thorax -4.07166 2.20804 -3.07793
lowerneck -17.2141 -3.10089 -1.8203
upperneck 19.0879 -3.88989 0.438402
head 8.86055 -1.9097 -0.0400596
rclavicle -2.63856e-014 -1.3418e-014
rhumerus -21.3285 -9.08845 -82.2203
rradius 33.091
rwrist -0.700127
rhand -17.8227 24.5461
rfingers 7.12502
rthumb 8.44145 -5.26521
lclavicle -2.63856e-014 -1.3418e-014
lhumerus -41.3987 7.50277 80.0747
lradius 20.8023
lwrist 0.546568
lhand -25.8729 26.1968
lfingers 7.12502
lthumb 0.668488 56.1755
rfemur 12.3261 5.88305 32.4003
rtibia 31.6878
rfoot -16.5856 -4.77296
rtoes -9.87195
lfemur -26.8178 -3.80601 -12.6874
ltibia 21.6508
lfoot -3.98056 -5.07079
ltoes -6.2066
210
root 0.921913 17.6559 8.06377 -1.03807 -4.6052 -5.58362
lowerback 8.81336 2.99751 6.34888
upperback 0.360074 4.67215 1.11338
thorax -4.15 2.19976 -2.95062
lowerneck -17.1577 -3.10231 -2.00127
upperneck 19.5089 -3.89899 0.656426
head 9.00401 -1.90231 0.0596018
rclavicle 9.00743e-015 1.21259e-014
rhumerus -21.8737 -9.54727 -82.0505
rradius 33.0137
rwrist -0.663656
rhand -17.522 24.082
rfingers 7.12502
rthumb 8.7316 -5.71741
lclavicle 9.00743e-015 1.21259e-014
lhumerus -41.8851 7.79732 79.7715
lradius 20.9084
lwrist 0.91979
lhand -24.4811 27.6734
lfingers 7.12502
lthumb 2.01272 57.6436
rfemur 12.4528 5.66568 31.4581
rtibia 33.0072
rfoot -15.0021 -4.01743
rtoes -9.67339
lfemur -26.3176 -4.13097 -13.564
ltibia 22.1764
lfoot -3.22443 -5.84875
ltoes -7.95011
211
root 0.944107 17.6723 8.29916 -1.38414 -4.40424 -4.90742
lowerback 8.78653 2.94873 5.63877
upperback 0.397626 4.52853 1.00398
thorax -4.15369 2.14252 -2.65304
lowerneck -17.1614 -3.09779 -1.96104
upperneck 19.7192 -3.8741 0.514717
head 9.07294 -1.90277 0.00603876
rclavicle -1.91128e-014 -6.33626e-015
rhumerus -22.2569 -10.0869 -81.9221
rradius 32.8249
rwrist -0.324819
rhand -17.5854 23.7155
rfingers 7.12502
rthumb 8.67048 -6.08646
lclavicle -1.91128e-014 -6.33626e-015
lhumerus -42.283 8.11969 79.5882
lradius 20.7995
lwrist 1.06978
lhand -24.2678 31.1618
lfingers 7.12502
lthumb 2.21874 61.13
rfemur 12.5104 5.41931 30.5877
rtibia 34.6625
rfoot -13.0722 -3.35977
rtoes -9.27068
lfemur -25.7505 -4.46259 -14.4529
ltibia 22.7071
lfoot -1.82524 -6.26711
ltoes -8.62443
212
root 0.963441 17.6774 8.53325 -1.57119 -4.0531 -4.30298
lowerback 8.6491 2.871 4.99105
upperback 0.32754 4.35007 0.873521
thorax -4.20177 2.06354 -2.40416
lowerneck -16.9208 -3.07756 -2.02117
upperneck 19.7006 -3.86869 0.661014
head 9.02725 -1.89 0.0704243
rclavicle -1.67197e-014 5.09386e-015
rhumerus -22.7807 -10.9441 -81.7199
rradius 32.3071
rwrist 0.349018
rhand -18.0723 24.6484
rfingers 7.12502
rthumb 8.20057 -5.17242
lclavicle -1.67197e-014 5.09386e-015
lhumerus -42.4456 8.45634 79.3537
lradius 20.1373
lwrist 1.05629
lhand -26.3492 30.7437
lfingers 7.12502
lthumb 0.208505 60.7233
rfemur 12.1444 5.00944 29.7363
rtibia 36.6107
rfoot -10.6997 -2.68744
rtoes -7.89424
lfemur -25.6011 -4.84784 -15.1906
ltibia 23.4084
lfoot 0.45485 -6.45487
ltoes -1.07717
213
root 0.985308 17.6796 8.76867 -1.69562 -3.50453 -3.8785
lowerback 8.57129 2.71165 4.6581
upperback 0.15352 4.10148 0.726113
thorax -4.3705 1.93879 -2.34655
lowerneck -16.5995 -3.07446 -2.02843
upperneck 19.8175 -3.89506 0.763866
head 9.01185 -1.8931 0.10737
rclavicle -7.26806e-015 2.6339e-015
rhumerus -23.489 -11.6988 -81.5413
rradius 31.7457
rwrist 1.07414
rhand -18.7113 25.4909
rfingers 7.12502
rthumb 7.58377 -4.35315
lclavicle -7.26806e-015 2.6339e-015
lhumerus -42.7419 8.70656 78.9556
lradius 19.6541
lwrist 1.04335
lhand -27.2445 25.6122
lfingers 7.12502
lthumb -0.656264 55.591
rfemur 11.4456 4.30709 29.0051
rtibia 38.7411
rfoot -7.8567 -2.11723
rtoes -6.8088
lfemur -25.2132 -4.51292 -16.1755
ltibia 24.3387
lfoot 0.0352321 -7.06822
ltoes -3.57867
214
root 1.00637 17.6792 8.99757 -1.77414 -2.66568 -3.73356
lowerback 8.43673 2.43686 4.59318
upperback -0.00804804 3.72518 0.658866
thorax -4.49022 1.74795 -2.33622
lowerneck -16.3052 -3.09365 -1.85007
upperneck 19.8607 -3.94504 0.629082
head 8.96682 -1.9195 0.0302973
rclavicle -1.06598e-014 -3.57812e-015
rhumerus -24.0637 -12.2524 -81.3966
rradius 31.3012
rwrist 1.42769
rhand -19.0701 25.3379
rfingers 7.12502
rthumb 7.23745 -4.51836
lclavicle -1.06598e-014 -3.57812e-015
lhumerus -43.2625 8.76231 78.611
lradius 19.66
lwrist 0.911754
lhand -26.2582 24.6096
lfingers 7.12502
lthumb 0.296351 54.5891
rfemur 10.5602 3.31148 28.5765
rtibia 40.9986
rfoot -4.85117 -1.7509
rtoes -5.53628
lfemur -25.0111 -4.45226 -16.7813
ltibia 25.3637
lfoot -1.24406 -7.4115
ltoes -5.85983
